# xmcd
#
# Track frame offsets: 
#        150
#        14740
#        31530
#        47955
#        60043
#        73305
#        85513
#        99110
#        110510
#        122895
#        134768
#        146648
#        158880
#        172880
#        181188
#        193430
#        206803
#        217323
#        230460
#        244733
#
# Disc length: 3426 seconds
#
# Revision: 1
# Processed by: cddbd v1.5.1PL0 Copyright (c) Steve Scherf et al.
# Submitted via: ExactAudioCopy v0.95a5
#
DISCID=250d6014
DTITLE=Hank Williams, Jr. - Standing In The Shadows
DYEAR=1988
DGENRE=Country
TTITLE0=Standing In The Shadows
TTITLE1=Can't You See
TTITLE2=Living Proof
TTITLE3=Cajun Baby
TTITLE4=A-EEE
TTITLE5=Eleven Roses
TTITLE6=A Baby Again
TTITLE7=After All They Used To Belong To Me
TTITLE8=Divorce Or Destroy
TTITLE9=It's All Over But The Crying
TTITLE10=Guess What, That's Right, She's Gone
TTITLE11=(I Heard That) Lonesome Whistle
TTITLE12=Detroit City
TTITLE13=Long Gone Lonesome Blues
TTITLE14=Hank
TTITLE15=Hamburger Steak, Holiday Inn
TTITLE16=Ain't That A Shame
TTITLE17=Rainin' In My Heart
TTITLE18=Pride's Not Hard To Swallow
TTITLE19=The Last Love Song
EXTD=c)1988 Polygram Records, Inc\nupc 042283513211\n(p) 1972,1973,197
EXTD=4,1975,1976,1988 Polygram Records Inc. USA\n\nAlbum research and co
EXTD=mpilation by Jim Kemp. All Songs BMI.\nYEAR: 1988
EXTT0=
EXTT1=
EXTT2=
EXTT3=
EXTT4=
EXTT5=
EXTT6=
EXTT7=
EXTT8=
EXTT9=
EXTT10=
EXTT11=
EXTT12=
EXTT13=
EXTT14=
EXTT15=
EXTT16=
EXTT17=
EXTT18=
EXTT19=
PLAYORDER=
